<?xml version="1.0" encoding="UTF-8" standalone="no"?><!-- Generator: Gravit.io --><svg xmlns="http://www.w3.org/2000/svg" xmlns:xlink="http://www.w3.org/1999/xlink" style="isolation:isolate" viewBox="0 0 500 120" width="500pt" height="120pt"><path d=" M 87.484 36.566 L 61.234 36.566 L 61.234 57.039 L 84.171 57.039 L 84.171 62.986 L 61.234 62.986 L 61.234 89.023 L 53.929 89.023 L 53.929 30.534 L 88.376 30.534 L 87.484 36.566 Z  M 133.697 57.804 L 133.697 79.254 L 133.697 79.254 Q 133.697 81.93 134.589 83.161 L 134.589 83.161 L 134.589 83.161 Q 135.481 84.393 137.35 84.988 L 137.35 84.988 L 135.609 90 L 135.609 90 Q 132.72 89.618 130.554 88.152 L 130.554 88.152 L 130.554 88.152 Q 128.388 86.687 127.411 83.714 L 127.411 83.714 L 127.411 83.714 Q 124.99 86.814 121.379 88.407 L 121.379 88.407 L 121.379 88.407 Q 117.769 90 113.394 90 L 113.394 90 L 113.394 90 Q 106.683 90 102.818 86.22 L 102.818 86.22 L 102.818 86.22 Q 98.952 82.439 98.952 76.195 L 98.952 76.195 L 98.952 76.195 Q 98.952 69.272 104.347 65.577 L 104.347 65.577 L 104.347 65.577 Q 109.741 61.881 119.935 61.881 L 119.935 61.881 L 126.519 61.881 L 126.519 58.143 L 126.519 58.143 Q 126.519 53.301 123.694 51.284 L 123.694 51.284 L 123.694 51.284 Q 120.87 49.266 115.858 49.266 L 115.858 49.266 L 115.858 49.266 Q 113.649 49.266 110.676 49.797 L 110.676 49.797 L 110.676 49.797 Q 107.702 50.328 104.219 51.56 L 104.219 51.56 L 102.351 46.165 L 102.351 46.165 Q 106.471 44.636 110.081 43.999 L 110.081 43.999 L 110.081 43.999 Q 113.691 43.362 116.962 43.362 L 116.962 43.362 L 116.962 43.362 Q 125.33 43.362 129.514 47.249 L 129.514 47.249 L 129.514 47.249 Q 133.697 51.135 133.697 57.804 L 133.697 57.804 Z  M 115.221 84.563 L 115.221 84.563 L 115.221 84.563 Q 118.534 84.563 121.549 82.885 L 121.549 82.885 L 121.549 82.885 Q 124.565 81.208 126.519 78.234 L 126.519 78.234 L 126.519 66.723 L 120.063 66.723 L 120.063 66.723 Q 112.672 66.723 109.635 69.272 L 109.635 69.272 L 109.635 69.272 Q 106.598 71.821 106.598 76.111 L 106.598 76.111 L 106.598 76.111 Q 106.598 80.273 108.743 82.418 L 108.743 82.418 L 108.743 82.418 Q 110.888 84.563 115.221 84.563 Z  M 167.848 84.096 L 167.848 84.096 L 167.848 84.096 Q 172.987 84.096 175.982 82.163 L 175.982 82.163 L 175.982 82.163 Q 178.976 80.231 178.976 77.003 L 178.976 77.003 L 178.976 77.003 Q 178.976 74.964 178.233 73.477 L 178.233 73.477 L 178.233 73.477 Q 177.489 71.99 175.196 70.801 L 175.196 70.801 L 175.196 70.801 Q 172.902 69.612 168.145 68.423 L 168.145 68.423 L 168.145 68.423 Q 163.515 67.276 160.096 65.768 L 160.096 65.768 L 160.096 65.768 Q 156.677 64.26 154.786 61.839 L 154.786 61.839 L 154.786 61.839 Q 152.896 59.418 152.896 55.552 L 152.896 55.552 L 152.896 55.552 Q 152.896 51.772 155.041 49.032 L 155.041 49.032 L 155.041 49.032 Q 157.186 46.293 161.009 44.827 L 161.009 44.827 L 161.009 44.827 Q 164.832 43.362 169.886 43.362 L 169.886 43.362 L 169.886 43.362 Q 175.281 43.362 179.295 44.785 L 179.295 44.785 L 179.295 44.785 Q 183.309 46.208 186.112 48.289 L 186.112 48.289 L 182.969 53.131 L 182.969 53.131 Q 180.42 51.39 177.362 50.264 L 177.362 50.264 L 177.362 50.264 Q 174.304 49.139 169.971 49.139 L 169.971 49.139 L 169.971 49.139 Q 164.704 49.139 162.496 50.774 L 162.496 50.774 L 162.496 50.774 Q 160.287 52.409 160.287 55 L 160.287 55 L 160.287 55 Q 160.287 56.954 161.37 58.25 L 161.37 58.25 L 161.37 58.25 Q 162.453 59.545 165.044 60.586 L 165.044 60.586 L 165.044 60.586 Q 167.635 61.626 172.18 62.858 L 172.18 62.858 L 172.18 62.858 Q 176.555 64.005 179.804 65.619 L 179.804 65.619 L 179.804 65.619 Q 183.054 67.233 184.88 69.867 L 184.88 69.867 L 184.88 69.867 Q 186.707 72.5 186.707 76.663 L 186.707 76.663 L 186.707 76.663 Q 186.707 81.42 183.988 84.372 L 183.988 84.372 L 183.988 84.372 Q 181.27 87.324 176.959 88.662 L 176.959 88.662 L 176.959 88.662 Q 172.647 90 167.848 90 L 167.848 90 L 167.848 90 Q 161.774 90 157.505 88.237 L 157.505 88.237 L 157.505 88.237 Q 153.236 86.475 150.348 83.968 L 150.348 83.968 L 154.425 79.254 L 154.425 79.254 Q 157.059 81.42 160.478 82.758 L 160.478 82.758 L 160.478 82.758 Q 163.897 84.096 167.848 84.096 Z  M 236.36 81.93 L 239.121 86.772 L 239.121 86.772 Q 236.828 88.301 233.557 89.15 L 233.557 89.15 L 233.557 89.15 Q 230.286 90 227.143 90 L 227.143 90 L 227.143 90 Q 219.922 90 216.015 86.22 L 216.015 86.22 L 216.015 86.22 Q 212.107 82.439 212.107 76.493 L 212.107 76.493 L 212.107 49.818 L 201.828 49.818 L 201.828 44.296 L 212.107 44.296 L 212.107 34.145 L 219.243 33.295 L 219.243 44.296 L 234.704 44.296 L 233.854 49.818 L 219.243 49.818 L 219.243 76.408 L 219.243 76.408 Q 219.243 80.146 221.218 82.1 L 221.218 82.1 L 221.218 82.1 Q 223.193 84.053 227.78 84.053 L 227.78 84.053 L 227.78 84.053 Q 230.286 84.053 232.41 83.459 L 232.41 83.459 L 232.41 83.459 Q 234.534 82.864 236.36 81.93 L 236.36 81.93 Z  M 288.563 65.534 L 254.497 65.534 L 254.497 59.333 L 288.563 59.333 L 288.563 65.534 Z  M 344.035 59.842 L 344.035 59.842 L 344.035 59.842 Q 344.035 68.677 341.636 75.495 L 341.636 75.495 L 341.636 75.495 Q 339.236 82.312 334.436 86.156 L 334.436 86.156 L 334.436 86.156 Q 329.636 90 322.5 90 L 322.5 90 L 322.5 90 Q 315.407 90 310.586 86.241 L 310.586 86.241 L 310.586 86.241 Q 305.765 82.482 303.365 75.728 L 303.365 75.728 L 303.365 75.728 Q 300.965 68.975 300.965 59.927 L 300.965 59.927 L 300.965 59.927 Q 300.965 51.05 303.365 44.212 L 303.365 44.212 L 303.365 44.212 Q 305.765 37.373 310.586 33.486 L 310.586 33.486 L 310.586 33.486 Q 315.407 29.6 322.5 29.6 L 322.5 29.6 L 322.5 29.6 Q 329.636 29.6 334.436 33.38 L 334.436 33.38 L 334.436 33.38 Q 339.236 37.161 341.636 43.957 L 341.636 43.957 L 341.636 43.957 Q 344.035 50.753 344.035 59.842 Z  M 336.305 59.842 L 336.305 59.842 L 336.305 59.842 Q 336.305 48.162 333.098 41.96 L 333.098 41.96 L 333.098 41.96 Q 329.891 35.759 322.5 35.759 L 322.5 35.759 L 322.5 35.759 Q 315.11 35.759 311.903 42.003 L 311.903 42.003 L 311.903 42.003 Q 308.696 48.247 308.696 59.927 L 308.696 59.927 L 308.696 59.927 Q 308.696 71.608 312.009 77.703 L 312.009 77.703 L 312.009 77.703 Q 315.322 83.799 322.5 83.799 L 322.5 83.799 L 322.5 83.799 Q 329.891 83.799 333.098 77.661 L 333.098 77.661 L 333.098 77.661 Q 336.305 71.523 336.305 59.842 Z  M 389.484 89.023 L 384.812 74.114 L 361.663 74.114 L 356.99 89.023 L 349.727 89.023 L 368.756 30.534 L 378.186 30.534 L 397.215 89.023 L 389.484 89.023 Z  M 373.301 36.736 L 363.574 67.998 L 382.9 67.998 L 373.301 36.736 Z  M 438.033 59.503 L 438.033 59.503 L 438.033 59.503 Q 438.033 51.857 436.419 47.27 L 436.419 47.27 L 436.419 47.27 Q 434.805 42.682 432.172 40.389 L 432.172 40.389 L 432.172 40.389 Q 429.538 38.095 426.416 37.331 L 426.416 37.331 L 426.416 37.331 Q 423.295 36.566 420.279 36.566 L 420.279 36.566 L 413.398 36.566 L 413.398 83.119 L 420.364 83.119 L 420.364 83.119 Q 423.507 83.119 426.629 82.121 L 426.629 82.121 L 426.629 82.121 Q 429.751 81.123 432.342 78.553 L 432.342 78.553 L 432.342 78.553 Q 434.933 75.983 436.483 71.375 L 436.483 71.375 L 436.483 71.375 Q 438.033 66.766 438.033 59.503 Z  M 445.891 59.503 L 445.891 59.503 L 445.891 59.503 Q 445.891 68.677 443.513 74.475 L 443.513 74.475 L 443.513 74.475 Q 441.134 80.273 437.226 83.438 L 437.226 83.438 L 437.226 83.438 Q 433.319 86.602 428.668 87.813 L 428.668 87.813 L 428.668 87.813 Q 424.017 89.023 419.472 89.023 L 419.472 89.023 L 406.05 89.023 L 406.05 30.534 L 418.537 30.534 L 418.537 30.534 Q 423.677 30.534 428.54 31.681 L 428.54 31.681 L 428.54 31.681 Q 433.404 32.828 437.333 35.908 L 437.333 35.908 L 437.333 35.908 Q 441.262 38.987 443.577 44.679 L 443.577 44.679 L 443.577 44.679 Q 445.891 50.37 445.891 59.503 Z " fill="#1266a6"/></svg>
